<svg id="visual" viewBox="0 0 900 250" width="900" height="250" xmlns="http://www.w3.org/2000/svg" xmlns:xlink="http://www.w3.org/1999/xlink" version="1.1"><g stroke-width="1" stroke-linejoin="bevel"><path d="M448 138.3L446 168.3L465 161.7Z" fill="#0b1c32" stroke="#0b1c32"></path><path d="M446 168.3L447 178L465 161.7Z" fill="#202548" stroke="#202548"></path><path d="M404 161.7L444 180L446 168.3Z" fill="#f05a36" stroke="#f05a36"></path><path d="M446 168.3L444 180L447 178Z" fill="#df434d" stroke="#df434d"></path><path d="M448 138.3L404 161.7L446 168.3Z" fill="#df434d" stroke="#df434d"></path><path d="M448 138.3L395 156.7L404 161.7Z" fill="#a73068" stroke="#a73068"></path><path d="M371 98L380 147.3L395 156.7Z" fill="#0b1c32" stroke="#0b1c32"></path><path d="M465 161.7L508 106.7L448 138.3Z" fill="#0b1c32" stroke="#0b1c32"></path><path d="M448 138.3L371 98L395 156.7Z" fill="#df434d" stroke="#df434d"></path><path d="M508 106.7L508 103.7L448 138.3Z" fill="#df434d" stroke="#df434d"></path><path d="M508 103.7L440 70.3L448 138.3Z" fill="#00101c" stroke="#00101c"></path><path d="M465 161.7L534 133.3L508 106.7Z" fill="#c6355e" stroke="#c6355e"></path><path d="M508 106.7L534 133.3L508 103.7Z" fill="#00101c" stroke="#00101c"></path><path d="M541 187.3L534 133.3L465 161.7Z" fill="#0b1c32" stroke="#0b1c32"></path><path d="M527 211.7L465 161.7L447 178Z" fill="#c6355e" stroke="#c6355e"></path><path d="M488 250L527 211.7L447 178Z" fill="#f05a36" stroke="#f05a36"></path><path d="M527 211.7L541 187.3L465 161.7Z" fill="#c6355e" stroke="#c6355e"></path><path d="M440 70.3L371 98L448 138.3Z" fill="#df434d" stroke="#df434d"></path><path d="M422 250L469 250L444 180Z" fill="#c6355e" stroke="#c6355e"></path><path d="M444 180L469 250L447 178Z" fill="#c6355e" stroke="#c6355e"></path><path d="M422 250L444 180L394 250Z" fill="#00101c" stroke="#00101c"></path><path d="M444 180L404 161.7L394 250Z" fill="#602f66" stroke="#602f66"></path><path d="M394 250L404 161.7L362 250Z" fill="#f05a36" stroke="#f05a36"></path><path d="M508 103.7L451 50.7L440 70.3Z" fill="#f7770f" stroke="#f7770f"></path><path d="M440 70.3L395 61L371 98Z" fill="#84306b" stroke="#84306b"></path><path d="M469 250L488 250L447 178Z" fill="#df434d" stroke="#df434d"></path><path d="M417 46.7L395 61L440 70.3Z" fill="#202548" stroke="#202548"></path><path d="M583 198.3L562 168L541 187.3Z" fill="#df434d" stroke="#df434d"></path><path d="M541 187.3L562 168L534 133.3Z" fill="#84306b" stroke="#84306b"></path><path d="M362 250L404 161.7L395 156.7Z" fill="#00101c" stroke="#00101c"></path><path d="M362 250L395 156.7L311 191.7Z" fill="#84306b" stroke="#84306b"></path><path d="M451 50.7L417 46.7L440 70.3Z" fill="#a73068" stroke="#a73068"></path><path d="M394 250L410 258.3L422 250Z" fill="#c6355e" stroke="#c6355e"></path><path d="M422 250L410 258.3L469 250Z" fill="#df434d" stroke="#df434d"></path><path d="M469 250L410 258.3L488 250Z" fill="#df434d" stroke="#df434d"></path><path d="M311 191.7L395 156.7L380 147.3Z" fill="#3e2c5a" stroke="#3e2c5a"></path><path d="M394 250L362 250L410 258.3Z" fill="#df434d" stroke="#df434d"></path><path d="M598 187L585 144.3L562 168Z" fill="#df434d" stroke="#df434d"></path><path d="M562 168L585 144.3L534 133.3Z" fill="#df434d" stroke="#df434d"></path><path d="M534 133.3L631 100.7L508 103.7Z" fill="#c6355e" stroke="#c6355e"></path><path d="M508 103.7L507 29.7L451 50.7Z" fill="#f05a36" stroke="#f05a36"></path><path d="M433 12.3L400 28.3L417 46.7Z" fill="#df434d" stroke="#df434d"></path><path d="M417 46.7L400 28.3L395 61Z" fill="#c6355e" stroke="#c6355e"></path><path d="M395 61L354 58.7L371 98Z" fill="#f7770f" stroke="#f7770f"></path><path d="M564 0L507 29.7L508 103.7Z" fill="#f05a36" stroke="#f05a36"></path><path d="M451 50.7L433 12.3L417 46.7Z" fill="#f05a36" stroke="#f05a36"></path><path d="M365 35.3L354 58.7L395 61Z" fill="#602f66" stroke="#602f66"></path><path d="M293 116L311 191.7L380 147.3Z" fill="#202548" stroke="#202548"></path><path d="M559 250L583 198.3L527 211.7Z" fill="#00101c" stroke="#00101c"></path><path d="M527 211.7L583 198.3L541 187.3Z" fill="#df434d" stroke="#df434d"></path><path d="M485 0L433 12.3L451 50.7Z" fill="#202548" stroke="#202548"></path><path d="M641 277.3L559 250L488 250Z" fill="#a73068" stroke="#a73068"></path><path d="M488 250L559 250L527 211.7Z" fill="#84306b" stroke="#84306b"></path><path d="M293 116L380 147.3L371 98Z" fill="#0b1c32" stroke="#0b1c32"></path><path d="M400 28.3L365 35.3L395 61Z" fill="#84306b" stroke="#84306b"></path><path d="M364 0L365 35.3L400 28.3Z" fill="#df434d" stroke="#df434d"></path><path d="M603 208.7L598 187L583 198.3Z" fill="#c6355e" stroke="#c6355e"></path><path d="M583 198.3L598 187L562 168Z" fill="#3e2c5a" stroke="#3e2c5a"></path><path d="M507 29.7L485 0L451 50.7Z" fill="#f7770f" stroke="#f7770f"></path><path d="M311 191.7L327 250L362 250Z" fill="#c6355e" stroke="#c6355e"></path><path d="M362 250L327 250L410 258.3Z" fill="#a73068" stroke="#a73068"></path><path d="M485 0L406 0L433 12.3Z" fill="#a73068" stroke="#a73068"></path><path d="M433 12.3L406 0L400 28.3Z" fill="#3e2c5a" stroke="#3e2c5a"></path><path d="M596 250L603 208.7L583 198.3Z" fill="#84306b" stroke="#84306b"></path><path d="M564 0L503 0L507 29.7Z" fill="#0b1c32" stroke="#0b1c32"></path><path d="M507 29.7L503 0L485 0Z" fill="#a73068" stroke="#a73068"></path><path d="M306 40.7L293 116L354 58.7Z" fill="#a73068" stroke="#a73068"></path><path d="M354 58.7L293 116L371 98Z" fill="#a73068" stroke="#a73068"></path><path d="M559 250L596 250L583 198.3Z" fill="#602f66" stroke="#602f66"></path><path d="M641 277.3L596 250L559 250Z" fill="#84306b" stroke="#84306b"></path><path d="M641 277.3L597 250L596 250Z" fill="#f7770f" stroke="#f7770f"></path><path d="M596 250L597 250L603 208.7Z" fill="#f05a36" stroke="#f05a36"></path><path d="M406 0L364 0L400 28.3Z" fill="#a73068" stroke="#a73068"></path><path d="M316 25.3L306 40.7L354 58.7Z" fill="#202548" stroke="#202548"></path><path d="M364 0L362 0L365 35.3Z" fill="#00101c" stroke="#00101c"></path><path d="M316 25.3L354 58.7L365 35.3Z" fill="#202548" stroke="#202548"></path><path d="M251 157.3L271 196L311 191.7Z" fill="#0b1c32" stroke="#0b1c32"></path><path d="M311 191.7L264 250L327 250Z" fill="#f05a36" stroke="#f05a36"></path><path d="M251 157.3L311 191.7L293 116Z" fill="#0b1c32" stroke="#0b1c32"></path><path d="M362 0L316 25.3L365 35.3Z" fill="#202548" stroke="#202548"></path><path d="M680 146.3L631 100.7L585 144.3Z" fill="#602f66" stroke="#602f66"></path><path d="M585 144.3L631 100.7L534 133.3Z" fill="#602f66" stroke="#602f66"></path><path d="M671 177.7L585 144.3L598 187Z" fill="#602f66" stroke="#602f66"></path><path d="M671 177.7L598 187L603 208.7Z" fill="#df434d" stroke="#df434d"></path><path d="M306 40.7L275 90.3L293 116Z" fill="#c6355e" stroke="#c6355e"></path><path d="M597 250L621 239.3L603 208.7Z" fill="#c6355e" stroke="#c6355e"></path><path d="M631 100.7L564 0L508 103.7Z" fill="#a73068" stroke="#a73068"></path><path d="M316 25.3L304 20.3L306 40.7Z" fill="#c6355e" stroke="#c6355e"></path><path d="M306 40.7L275 40.7L275 90.3Z" fill="#f7770f" stroke="#f7770f"></path><path d="M362 0L304 20.3L316 25.3Z" fill="#f7770f" stroke="#f7770f"></path><path d="M275 90.3L251 157.3L293 116Z" fill="#202548" stroke="#202548"></path><path d="M631 100.7L586 0L564 0Z" fill="#0b1c32" stroke="#0b1c32"></path><path d="M304 20.3L275 40.7L306 40.7Z" fill="#df434d" stroke="#df434d"></path><path d="M197 85L191 150.7L251 157.3Z" fill="#f05a36" stroke="#f05a36"></path><path d="M215 186.7L255 228.3L271 196Z" fill="#f7770f" stroke="#f7770f"></path><path d="M271 196L264 250L311 191.7Z" fill="#df434d" stroke="#df434d"></path><path d="M255 228.3L264 250L271 196Z" fill="#84306b" stroke="#84306b"></path><path d="M327 250L162 277.3L410 258.3Z" fill="#3e2c5a" stroke="#3e2c5a"></path><path d="M621 239.3L659 221.7L603 208.7Z" fill="#602f66" stroke="#602f66"></path><path d="M659 221.7L671 177.7L603 208.7Z" fill="#0b1c32" stroke="#0b1c32"></path><path d="M631 100.7L648 0L586 0Z" fill="#df434d" stroke="#df434d"></path><path d="M275 40.7L252 58L275 90.3Z" fill="#df434d" stroke="#df434d"></path><path d="M666 91L662 80.7L631 100.7Z" fill="#84306b" stroke="#84306b"></path><path d="M682 107L666 91L631 100.7Z" fill="#df434d" stroke="#df434d"></path><path d="M621 239.3L641 277.3L659 221.7Z" fill="#f7770f" stroke="#f7770f"></path><path d="M597 250L641 277.3L621 239.3Z" fill="#c6355e" stroke="#c6355e"></path><path d="M410 258.3L641 277.3L488 250Z" fill="#602f66" stroke="#602f66"></path><path d="M162 277.3L641 277.3L410 258.3Z" fill="#00101c" stroke="#00101c"></path><path d="M688 124.3L680 146.3L689 133.7Z" fill="#0b1c32" stroke="#0b1c32"></path><path d="M671 177.7L680 146.3L585 144.3Z" fill="#f05a36" stroke="#f05a36"></path><path d="M304 20.3L286 -6.3L275 40.7Z" fill="#00101c" stroke="#00101c"></path><path d="M275 40.7L250 0L252 58Z" fill="#00101c" stroke="#00101c"></path><path d="M362 0L286 -6.3L304 20.3Z" fill="#a73068" stroke="#a73068"></path><path d="M364 0L286 -6.3L362 0Z" fill="#84306b" stroke="#84306b"></path><path d="M406 0L286 -6.3L364 0Z" fill="#84306b" stroke="#84306b"></path><path d="M485 0L286 -6.3L406 0Z" fill="#202548" stroke="#202548"></path><path d="M503 0L286 -6.3L485 0Z" fill="#84306b" stroke="#84306b"></path><path d="M564 0L286 -6.3L503 0Z" fill="#00101c" stroke="#00101c"></path><path d="M586 0L286 -6.3L564 0Z" fill="#3e2c5a" stroke="#3e2c5a"></path><path d="M680 146.3L682 107L631 100.7Z" fill="#602f66" stroke="#602f66"></path><path d="M666 91L693 66.7L662 80.7Z" fill="#00101c" stroke="#00101c"></path><path d="M689 133.7L680 146.3L739 164.3Z" fill="#3e2c5a" stroke="#3e2c5a"></path><path d="M680 146.3L688 124.3L682 107Z" fill="#84306b" stroke="#84306b"></path><path d="M688 124.3L747 138L736 95.7Z" fill="#00101c" stroke="#00101c"></path><path d="M680 146.3L671 177.7L739 164.3Z" fill="#c6355e" stroke="#c6355e"></path><path d="M251 157.3L215 186.7L271 196Z" fill="#3e2c5a" stroke="#3e2c5a"></path><path d="M255 228.3L186 250L264 250Z" fill="#602f66" stroke="#602f66"></path><path d="M203 177.7L215 186.7L251 157.3Z" fill="#a73068" stroke="#a73068"></path><path d="M693 66.7L666 91L682 107Z" fill="#f05a36" stroke="#f05a36"></path><path d="M678 14.3L648 0L662 80.7Z" fill="#c6355e" stroke="#c6355e"></path><path d="M662 80.7L648 0L631 100.7Z" fill="#00101c" stroke="#00101c"></path><path d="M586 0L648 0L286 -6.3Z" fill="#f7770f" stroke="#f7770f"></path><path d="M191 150.7L203 177.7L251 157.3Z" fill="#a73068" stroke="#a73068"></path><path d="M215 186.7L186 250L255 228.3Z" fill="#3e2c5a" stroke="#3e2c5a"></path><path d="M286 -6.3L250 0L275 40.7Z" fill="#84306b" stroke="#84306b"></path><path d="M197 85L251 157.3L275 90.3Z" fill="#3e2c5a" stroke="#3e2c5a"></path><path d="M723 87L693 66.7L682 107Z" fill="#3e2c5a" stroke="#3e2c5a"></path><path d="M723 87L682 107L688 124.3Z" fill="#202548" stroke="#202548"></path><path d="M197 85L275 90.3L252 58Z" fill="#f05a36" stroke="#f05a36"></path><path d="M186 78.3L197 85L252 58Z" fill="#df434d" stroke="#df434d"></path><path d="M693 66.7L678 14.3L662 80.7Z" fill="#602f66" stroke="#602f66"></path><path d="M219 0L186 78.3L252 58Z" fill="#f05a36" stroke="#f05a36"></path><path d="M197 85L152 143.3L191 150.7Z" fill="#a73068" stroke="#a73068"></path><path d="M286 -6.3L219 0L250 0Z" fill="#00101c" stroke="#00101c"></path><path d="M250 0L219 0L252 58Z" fill="#f05a36" stroke="#f05a36"></path><path d="M736 95.7L723 87L688 124.3Z" fill="#84306b" stroke="#84306b"></path><path d="M732 47.3L698 0L678 14.3Z" fill="#202548" stroke="#202548"></path><path d="M739 164.3L671 177.7L742 217.7Z" fill="#84306b" stroke="#84306b"></path><path d="M169 208.3L215 186.7L203 177.7Z" fill="#c6355e" stroke="#c6355e"></path><path d="M169 208.3L186 250L215 186.7Z" fill="#f05a36" stroke="#f05a36"></path><path d="M264 250L162 277.3L327 250Z" fill="#84306b" stroke="#84306b"></path><path d="M169 194L203 177.7L191 150.7Z" fill="#df434d" stroke="#df434d"></path><path d="M152 143.3L169 194L191 150.7Z" fill="#202548" stroke="#202548"></path><path d="M742 217.7L671 177.7L659 221.7Z" fill="#c6355e" stroke="#c6355e"></path><path d="M169 194L169 208.3L203 177.7Z" fill="#3e2c5a" stroke="#3e2c5a"></path><path d="M747 138L688 124.3L689 133.7Z" fill="#00101c" stroke="#00101c"></path><path d="M726 56L678 14.3L693 66.7Z" fill="#3e2c5a" stroke="#3e2c5a"></path><path d="M726 56L693 66.7L723 87Z" fill="#202548" stroke="#202548"></path><path d="M678 14.3L698 0L648 0Z" fill="#0b1c32" stroke="#0b1c32"></path><path d="M648 0L698 0L286 -6.3Z" fill="#84306b" stroke="#84306b"></path><path d="M760 75.3L726 56L723 87Z" fill="#c6355e" stroke="#c6355e"></path><path d="M286 -6.3L203 0L219 0Z" fill="#c6355e" stroke="#c6355e"></path><path d="M219 0L203 0L186 78.3Z" fill="#84306b" stroke="#84306b"></path><path d="M641 277.3L730 250L659 221.7Z" fill="#df434d" stroke="#df434d"></path><path d="M766 160.7L747 138L739 164.3Z" fill="#c6355e" stroke="#c6355e"></path><path d="M739 164.3L747 138L689 133.7Z" fill="#c6355e" stroke="#c6355e"></path><path d="M760 75.3L732 47.3L726 56Z" fill="#f7770f" stroke="#f7770f"></path><path d="M730 250L742 217.7L659 221.7Z" fill="#df434d" stroke="#df434d"></path><path d="M105 126.7L152 143.3L186 78.3Z" fill="#c6355e" stroke="#c6355e"></path><path d="M186 78.3L152 143.3L197 85Z" fill="#df434d" stroke="#df434d"></path><path d="M169 194L132 218.3L169 208.3Z" fill="#602f66" stroke="#602f66"></path><path d="M760 75.3L723 87L736 95.7Z" fill="#a73068" stroke="#a73068"></path><path d="M726 56L732 47.3L678 14.3Z" fill="#602f66" stroke="#602f66"></path><path d="M813 271.3L740 250L730 250Z" fill="#3e2c5a" stroke="#3e2c5a"></path><path d="M730 250L740 250L742 217.7Z" fill="#df434d" stroke="#df434d"></path><path d="M783 201.3L766 160.7L739 164.3Z" fill="#f05a36" stroke="#f05a36"></path><path d="M813 271.3L743 250L740 250Z" fill="#df434d" stroke="#df434d"></path><path d="M740 250L743 250L742 217.7Z" fill="#f7770f" stroke="#f7770f"></path><path d="M732 47.3L721 2.7L698 0Z" fill="#00101c" stroke="#00101c"></path><path d="M132 218.3L158 250L169 208.3Z" fill="#df434d" stroke="#df434d"></path><path d="M169 208.3L158 250L186 250Z" fill="#602f66" stroke="#602f66"></path><path d="M186 250L162 277.3L264 250Z" fill="#f7770f" stroke="#f7770f"></path><path d="M203 0L167 29.7L186 78.3Z" fill="#f05a36" stroke="#f05a36"></path><path d="M783 201.3L739 164.3L742 217.7Z" fill="#c6355e" stroke="#c6355e"></path><path d="M747 138L760 75.3L736 95.7Z" fill="#84306b" stroke="#84306b"></path><path d="M732 47.3L745 0L721 2.7Z" fill="#df434d" stroke="#df434d"></path><path d="M158 250L162 277.3L186 250Z" fill="#c6355e" stroke="#c6355e"></path><path d="M766 160.7L760 75.3L747 138Z" fill="#a73068" stroke="#a73068"></path><path d="M152 143.3L128 169.7L169 194Z" fill="#202548" stroke="#202548"></path><path d="M158 250L109 250L162 277.3Z" fill="#f7770f" stroke="#f7770f"></path><path d="M105 126.7L128 169.7L152 143.3Z" fill="#3e2c5a" stroke="#3e2c5a"></path><path d="M128 169.7L132 218.3L169 194Z" fill="#a73068" stroke="#a73068"></path><path d="M768 0L745 0L732 47.3Z" fill="#f7770f" stroke="#f7770f"></path><path d="M721 2.7L745 0L698 0Z" fill="#84306b" stroke="#84306b"></path><path d="M698 0L745 0L286 -6.3Z" fill="#202548" stroke="#202548"></path><path d="M778 250L783 201.3L742 217.7Z" fill="#a73068" stroke="#a73068"></path><path d="M766 160.7L852 150.7L760 75.3Z" fill="#602f66" stroke="#602f66"></path><path d="M813 271.3L778 250L743 250Z" fill="#84306b" stroke="#84306b"></path><path d="M743 250L778 250L742 217.7Z" fill="#f7770f" stroke="#f7770f"></path><path d="M86 102.3L105 126.7L186 78.3Z" fill="#84306b" stroke="#84306b"></path><path d="M98 222.7L109 250L132 218.3Z" fill="#202548" stroke="#202548"></path><path d="M286 -6.3L136 0L203 0Z" fill="#3e2c5a" stroke="#3e2c5a"></path><path d="M203 0L136 0L167 29.7Z" fill="#202548" stroke="#202548"></path><path d="M167 29.7L112 27.3L186 78.3Z" fill="#f7770f" stroke="#f7770f"></path><path d="M773 0L768 0L760 75.3Z" fill="#602f66" stroke="#602f66"></path><path d="M760 75.3L768 0L732 47.3Z" fill="#202548" stroke="#202548"></path><path d="M745 0L768 0L286 -6.3Z" fill="#202548" stroke="#202548"></path><path d="M98 222.7L132 218.3L84 190Z" fill="#0b1c32" stroke="#0b1c32"></path><path d="M132 218.3L109 250L158 250Z" fill="#df434d" stroke="#df434d"></path><path d="M868 0L773 0L760 75.3Z" fill="#a73068" stroke="#a73068"></path><path d="M768 0L773 0L286 -6.3Z" fill="#202548" stroke="#202548"></path><path d="M84 190L132 218.3L128 169.7Z" fill="#c6355e" stroke="#c6355e"></path><path d="M136 0L112 27.3L167 29.7Z" fill="#84306b" stroke="#84306b"></path><path d="M105 126.7L84 190L128 169.7Z" fill="#84306b" stroke="#84306b"></path><path d="M112 27.3L86 102.3L186 78.3Z" fill="#a73068" stroke="#a73068"></path><path d="M76 120.3L84 190L105 126.7Z" fill="#f05a36" stroke="#f05a36"></path><path d="M98 222.7L0 250L109 250Z" fill="#f7770f" stroke="#f7770f"></path><path d="M53 52.7L76 120.3L86 102.3Z" fill="#00101c" stroke="#00101c"></path><path d="M86 102.3L76 120.3L105 126.7Z" fill="#df434d" stroke="#df434d"></path><path d="M641 277.3L813 271.3L730 250Z" fill="#c6355e" stroke="#c6355e"></path><path d="M778 250L813 271.3L783 201.3Z" fill="#df434d" stroke="#df434d"></path><path d="M783 201.3L852 150.7L766 160.7Z" fill="#00101c" stroke="#00101c"></path><path d="M136 0L83 0.7L112 27.3Z" fill="#f05a36" stroke="#f05a36"></path><path d="M112 27.3L53 52.7L86 102.3Z" fill="#602f66" stroke="#602f66"></path><path d="M69 -4.3L83 0.7L136 0Z" fill="#602f66" stroke="#602f66"></path><path d="M866 250L852 150.7L783 201.3Z" fill="#3e2c5a" stroke="#3e2c5a"></path><path d="M641 277.3L842 273.3L813 271.3Z" fill="#202548" stroke="#202548"></path><path d="M813 271.3L866 250L783 201.3Z" fill="#84306b" stroke="#84306b"></path><path d="M83 0.7L53 52.7L112 27.3Z" fill="#df434d" stroke="#df434d"></path><path d="M76 120.3L0 172.7L84 190Z" fill="#f7770f" stroke="#f7770f"></path><path d="M286 -6.3L69 -4.3L136 0Z" fill="#202548" stroke="#202548"></path><path d="M83 0.7L59 0L53 52.7Z" fill="#0b1c32" stroke="#0b1c32"></path><path d="M69 -4.3L59 0L83 0.7Z" fill="#f7770f" stroke="#f7770f"></path><path d="M842 273.3L866 250L813 271.3Z" fill="#df434d" stroke="#df434d"></path><path d="M900 134L876 101.7L852 150.7Z" fill="#84306b" stroke="#84306b"></path><path d="M852 150.7L876 101.7L760 75.3Z" fill="#202548" stroke="#202548"></path><path d="M900 96.7L880 87L876 101.7Z" fill="#f7770f" stroke="#f7770f"></path><path d="M876 101.7L880 87L760 75.3Z" fill="#202548" stroke="#202548"></path><path d="M880 87L868 0L760 75.3Z" fill="#f05a36" stroke="#f05a36"></path><path d="M773 0L868 0L286 -6.3Z" fill="#84306b" stroke="#84306b"></path><path d="M900 180.3L900 134L852 150.7Z" fill="#f7770f" stroke="#f7770f"></path><path d="M880 87L908 62.3L868 0Z" fill="#3e2c5a" stroke="#3e2c5a"></path><path d="M900 184.7L900 180.3L852 150.7Z" fill="#84306b" stroke="#84306b"></path><path d="M866 250L900 184.7L852 150.7Z" fill="#f05a36" stroke="#f05a36"></path><path d="M900 134L900 119.3L876 101.7Z" fill="#df434d" stroke="#df434d"></path><path d="M0 119L76 120.3L0 72.7Z" fill="#84306b" stroke="#84306b"></path><path d="M0 119L0 139.3L76 120.3Z" fill="#df434d" stroke="#df434d"></path><path d="M84 190L0 250L98 222.7Z" fill="#0b1c32" stroke="#0b1c32"></path><path d="M-2 147L0 172.7L76 120.3Z" fill="#602f66" stroke="#602f66"></path><path d="M900 119.3L900 96.7L876 101.7Z" fill="#00101c" stroke="#00101c"></path><path d="M0 72.7L76 120.3L53 52.7Z" fill="#84306b" stroke="#84306b"></path><path d="M0 172.7L0 188.3L84 190Z" fill="#202548" stroke="#202548"></path><path d="M0 119L-2 147L0 139.3Z" fill="#3e2c5a" stroke="#3e2c5a"></path><path d="M0 139.3L-2 147L76 120.3Z" fill="#602f66" stroke="#602f66"></path><path d="M0 172.7L-11 250L0 188.3Z" fill="#df434d" stroke="#df434d"></path><path d="M0 49.3L0 72.7L53 52.7Z" fill="#df434d" stroke="#df434d"></path><path d="M0 119L-21 0L-2 147Z" fill="#202548" stroke="#202548"></path><path d="M842 273.3L900 250L866 250Z" fill="#602f66" stroke="#602f66"></path><path d="M866 250L900 250L900 184.7Z" fill="#3e2c5a" stroke="#3e2c5a"></path><path d="M-11 250L0 250L0 188.3Z" fill="#f7770f" stroke="#f7770f"></path><path d="M0 188.3L0 250L84 190Z" fill="#0b1c32" stroke="#0b1c32"></path><path d="M109 250L0 250L162 277.3Z" fill="#f05a36" stroke="#f05a36"></path><path d="M-21 0L-11 250L-2 147Z" fill="#3e2c5a" stroke="#3e2c5a"></path><path d="M0 0L0 49.3L53 52.7Z" fill="#202548" stroke="#202548"></path><path d="M900 96.7L908 62.3L880 87Z" fill="#0b1c32" stroke="#0b1c32"></path><path d="M923 106.7L908 62.3L900 96.7Z" fill="#f7770f" stroke="#f7770f"></path><path d="M923 106.7L900 96.7L900 119.3Z" fill="#3e2c5a" stroke="#3e2c5a"></path><path d="M923 106.7L900 119.3L900 134Z" fill="#0b1c32" stroke="#0b1c32"></path><path d="M923 106.7L900 134L900 180.3Z" fill="#f7770f" stroke="#f7770f"></path><path d="M923 106.7L900 180.3L900 184.7Z" fill="#3e2c5a" stroke="#3e2c5a"></path><path d="M-2 147L-11 250L0 172.7Z" fill="#202548" stroke="#202548"></path><path d="M0 250L-11 250L162 277.3Z" fill="#df434d" stroke="#df434d"></path><path d="M-21 0L0 119L0 72.7Z" fill="#c6355e" stroke="#c6355e"></path><path d="M900 250L923 106.7L900 184.7Z" fill="#84306b" stroke="#84306b"></path><path d="M923 106.7L900 0L908 62.3Z" fill="#c6355e" stroke="#c6355e"></path><path d="M908 62.3L900 0L868 0Z" fill="#a73068" stroke="#a73068"></path><path d="M868 0L900 0L286 -6.3Z" fill="#00101c" stroke="#00101c"></path><path d="M59 0L0 0L53 52.7Z" fill="#f05a36" stroke="#f05a36"></path><path d="M0 49.3L-21 0L0 72.7Z" fill="#c6355e" stroke="#c6355e"></path><path d="M69 -4.3L0 0L59 0Z" fill="#0b1c32" stroke="#0b1c32"></path><path d="M69 -4.3L-21 0L0 0Z" fill="#602f66" stroke="#602f66"></path><path d="M0 0L-21 0L0 49.3Z" fill="#602f66" stroke="#602f66"></path></g></svg>