<svg id="visual" viewBox="0 0 900 250" width="900" height="250" xmlns="http://www.w3.org/2000/svg" xmlns:xlink="http://www.w3.org/1999/xlink" version="1.1"><rect x="0" y="0" width="900" height="250" fill="#001220"></rect><path d="M0 179L12.5 181.3C25 183.7 50 188.3 75 186.8C100 185.3 125 177.7 150 169.7C175 161.7 200 153.3 225 153C250 152.7 275 160.3 300 160.3C325 160.3 350 152.7 375 152.5C400 152.3 425 159.7 450 159.7C475 159.7 500 152.3 525 149.3C550 146.3 575 147.7 600 154C625 160.3 650 171.7 675 177C700 182.3 725 181.7 750 180C775 178.3 800 175.7 825 171.7C850 167.7 875 162.3 887.5 159.7L900 157L900 0L887.5 0C875 0 850 0 825 0C800 0 775 0 750 0C725 0 700 0 675 0C650 0 625 0 600 0C575 0 550 0 525 0C500 0 475 0 450 0C425 0 400 0 375 0C350 0 325 0 300 0C275 0 250 0 225 0C200 0 175 0 150 0C125 0 100 0 75 0C50 0 25 0 12.5 0L0 0Z" fill="#fa7268"></path><path d="M0 149L12.5 145.3C25 141.7 50 134.3 75 130.8C100 127.3 125 127.7 150 130.2C175 132.7 200 137.3 225 140.8C250 144.3 275 146.7 300 147.5C325 148.3 350 147.7 375 145C400 142.3 425 137.7 450 138.3C475 139 500 145 525 142C550 139 575 127 600 127.3C625 127.7 650 140.3 675 147.3C700 154.3 725 155.7 750 150.3C775 145 800 133 825 128.5C850 124 875 127 887.5 128.5L900 130L900 0L887.5 0C875 0 850 0 825 0C800 0 775 0 750 0C725 0 700 0 675 0C650 0 625 0 600 0C575 0 550 0 525 0C500 0 475 0 450 0C425 0 400 0 375 0C350 0 325 0 300 0C275 0 250 0 225 0C200 0 175 0 150 0C125 0 100 0 75 0C50 0 25 0 12.5 0L0 0Z" fill="#ef5f67"></path><path d="M0 105L12.5 102.7C25 100.3 50 95.7 75 92.5C100 89.3 125 87.7 150 93.7C175 99.7 200 113.3 225 120.7C250 128 275 129 300 122C325 115 350 100 375 97C400 94 425 103 450 106.5C475 110 500 108 525 107.3C550 106.7 575 107.3 600 111C625 114.7 650 121.3 675 123C700 124.7 725 121.3 750 115.8C775 110.3 800 102.7 825 98.3C850 94 875 93 887.5 92.5L900 92L900 0L887.5 0C875 0 850 0 825 0C800 0 775 0 750 0C725 0 700 0 675 0C650 0 625 0 600 0C575 0 550 0 525 0C500 0 475 0 450 0C425 0 400 0 375 0C350 0 325 0 300 0C275 0 250 0 225 0C200 0 175 0 150 0C125 0 100 0 75 0C50 0 25 0 12.5 0L0 0Z" fill="#e34c67"></path><path d="M0 74L12.5 71.5C25 69 50 64 75 62.7C100 61.3 125 63.7 150 64.5C175 65.3 200 64.7 225 66.8C250 69 275 74 300 78.8C325 83.7 350 88.3 375 88.2C400 88 425 83 450 82.7C475 82.3 500 86.7 525 85C550 83.3 575 75.7 600 74.2C625 72.7 650 77.3 675 81.5C700 85.7 725 89.3 750 87.3C775 85.3 800 77.7 825 77.7C850 77.7 875 85.3 887.5 89.2L900 93L900 0L887.5 0C875 0 850 0 825 0C800 0 775 0 750 0C725 0 700 0 675 0C650 0 625 0 600 0C575 0 550 0 525 0C500 0 475 0 450 0C425 0 400 0 375 0C350 0 325 0 300 0C275 0 250 0 225 0C200 0 175 0 150 0C125 0 100 0 75 0C50 0 25 0 12.5 0L0 0Z" fill="#d53867"></path><path d="M0 55L12.5 50.5C25 46 50 37 75 33.8C100 30.7 125 33.3 150 35.3C175 37.3 200 38.7 225 39.5C250 40.3 275 40.7 300 39.5C325 38.3 350 35.7 375 35.7C400 35.7 425 38.3 450 41.7C475 45 500 49 525 51.3C550 53.7 575 54.3 600 51.8C625 49.3 650 43.7 675 40.2C700 36.7 725 35.3 750 34.3C775 33.3 800 32.7 825 32C850 31.3 875 30.7 887.5 30.3L900 30L900 0L887.5 0C875 0 850 0 825 0C800 0 775 0 750 0C725 0 700 0 675 0C650 0 625 0 600 0C575 0 550 0 525 0C500 0 475 0 450 0C425 0 400 0 375 0C350 0 325 0 300 0C275 0 250 0 225 0C200 0 175 0 150 0C125 0 100 0 75 0C50 0 25 0 12.5 0L0 0Z" fill="#c62368"></path></svg>